{
	"asset":{
		"generator":"Khronos glTF Blender I/O v3.5.30",
		"version":"2.0"
	},
	"extensionsUsed":[
		"KHR_materials_specular",
		"KHR_materials_ior"
	],
	"scene":0,
	"scenes":[
		{
			"name":"Scene",
			"nodes":[
				0
			]
		}
	],
	"nodes":[
		{
			"mesh":0,
			"name":"Plane.009"
		}
	],
	"materials":[
		{
			"doubleSided":true,
			"extensions":{
				"KHR_materials_specular":{
					"specularColorFactor":[
						0,
						0,
						0
					]
				},
				"KHR_materials_ior":{
					"ior":1.4500000476837158
				}
			},
			"name":"plastic",
			"pbrMetallicRoughness":{
				"baseColorFactor":[
					0,
					0,
					0,
					1
				],
				"metallicFactor":0,
				"roughnessFactor":0.30454546213150024
			}
		},
		{
			"doubleSided":true,
			"name":"metal",
			"pbrMetallicRoughness":{
				"baseColorFactor":[
					0.800000011920929,
					0.800000011920929,
					0.800000011920929,
					1
				],
				"roughnessFactor":0.4000000059604645
			}
		}
	],
	"meshes":[
		{
			"name":"Plane.009",
			"primitives":[
				{
					"attributes":{
						"POSITION":0,
						"NORMAL":1
					},
					"indices":2,
					"material":0
				},
				{
					"attributes":{
						"POSITION":3,
						"NORMAL":4
					},
					"indices":5,
					"material":1
				}
			]
		}
	],
	"accessors":[
		{
			"bufferView":0,
			"componentType":5126,
			"count":5170,
			"max":[
				0.2681143283843994,
				0.8477405309677124,
				0.315394788980484
			],
			"min":[
				-0.26797494292259216,
				0.3594682514667511,
				-0.28298282623291016
			],
			"type":"VEC3"
		},
		{
			"bufferView":1,
			"componentType":5126,
			"count":5170,
			"type":"VEC3"
		},
		{
			"bufferView":2,
			"componentType":5123,
			"count":31008,
			"type":"SCALAR"
		},
		{
			"bufferView":3,
			"componentType":5126,
			"count":4100,
			"max":[
				0.29987674951553345,
				0.5710771679878235,
				0.31464090943336487
			],
			"min":[
				-0.2998766303062439,
				9.184880764223635e-05,
				-0.23017215728759766
			],
			"type":"VEC3"
		},
		{
			"bufferView":4,
			"componentType":5126,
			"count":4100,
			"type":"VEC3"
		},
		{
			"bufferView":5,
			"componentType":5123,
			"count":24576,
			"type":"SCALAR"
		}
	],
	"bufferViews":[
		{
			"buffer":0,
			"byteLength":62040,
			"byteOffset":0,
			"target":34962
		},
		{
			"buffer":0,
			"byteLength":62040,
			"byteOffset":62040,
			"target":34962
		},
		{
			"buffer":0,
			"byteLength":62016,
			"byteOffset":124080,
			"target":34963
		},
		{
			"buffer":0,
			"byteLength":49200,
			"byteOffset":186096,
			"target":34962
		},
		{
			"buffer":0,
			"byteLength":49200,
			"byteOffset":235296,
			"target":34962
		},
		{
			"buffer":0,
			"byteLength":49152,
			"byteOffset":284496,
			"target":34963
		}
	],
	"buffers":[
		{
			"byteLength":333648,
			"uri":"data:application/octet-stream;base64,"
		}
	]
}
